# AST/ASF file generated using VICON BodyLanguage
# -----------------------------------------------
:version 1.10
:name VICON
:units
  mass 1.0
  length 0.45
  angle deg
:documentation
   .ast/.asf automatically generated from VICON data using
   VICON BodyBuilder and BodyLanguage model FoxedUp or BRILLIANT.MOD
:root
   order TX TY TZ RX RY RZ
   axis XYZ
   position 0 0 0  
   orientation 0 -0 0 
:bonedata
  begin
     id 1 
     name lhipjoint
     direction 0.515797 -0.759363 0.396637 
     length 2.47888 
     axis 0 -0 0  XYZ
  end
  begin
     id 2 
     name lfemur
     direction 0.34202 -0.939693 0  
     length 6.81885  
     axis 0 -0 20  XYZ
    dof rx ry rz
    limits (-160.0 20.0)
           (-70.0 70.0)
           (-60.0 70.0)
  end
  begin
     id 3 
     name ltibia
     direction 0.342037 -0.939687 0   
     length 7.89258   
     axis 0 -0 20   XYZ
    dof rx
    limits (-10.0 170.0)
  end
  begin
     id 4 
     name lfoot
     direction 0.173497 -0.476678 0.861787   
     length 2.51543   
     axis -90 -1.13533e-015 20   XYZ
    dof rx rz
    limits (-45.0 90.0)
           (-70.0 20.0)
  end
  begin
     id 5 
     name ltoes
     direction 1.53564e-011 -4.21897e-011 1   
     length 1.21388   
     axis -90 -1.13533e-015 20   XYZ
    dof rx
    limits (-90.0 20.0)
  end
  begin
     id 6 
     name rhipjoint
     direction -0.489454 -0.772941 0.403729   
     length 2.43534  
     axis 0 -0 0  XYZ 
  end
  begin
     id 7 
     name rfemur
     direction -0.34202 -0.939693 0   
     length 7.10357   
     axis 0 -0 -20   XYZ
    dof rx ry rz
    limits (-160.0 20.0)
           (-70.0 70.0)
           (-70.0 60.0)
  end
  begin
     id 8 
     name rtibia
     direction -0.34202 -0.939693 0   
     length 9.16127   
     axis 0 -0 -20   XYZ
    dof rx
    limits (-10.0 170.0)
 end
 begin
     id 9 
     name rfoot
     direction -0.270974 -0.748671 0.605033   
     length 1.74894  
     axis -90 1.13533e-015 -20   XYZ
    dof rx rz
    limits (-45.0 90.0)
           (-20.0 70.0)
  end
  begin
     id 10 
     name rtoes
     direction -1.53557e-011 -4.21759e-011 1   
     length 0.787585   
     axis -90 1.13533e-015 -20   XYZ
    dof rx
    limits (-90.0 20.0)
  end
  begin
     id 11 
     name lowerback
     direction -0.0140249 0.999561 0.0260968   
     length 2.16963   
     axis 0 -0 0   XYZ
    dof rx ry rz
    limits (-20.0 45.0)
           (-30.0 30.0)
           (-30.0 30.0)
  end
  begin
     id 12 
     name upperback
     direction 0.00860018 0.999959 -0.002711   
     length 2.1726   
     axis 0 -0 0   XYZ
    dof rx ry rz
    limits (-20.0 45.0)
           (-30.0 30.0)
           (-30.0 30.0)
  end
  begin
     id 13 
     name thorax
     direction 0.015211 0.999782 -0.0143191   
     length 2.17061   
     axis 0 -0 0   XYZ
    dof rx ry rz
    limits (-20.0 45.0)
           (-30.0 30.0)
           (-30.0 30.0)
  end
  begin
     id 14 
     name lowerneck
     direction -0.0140143 0.999447 0.030145   
     length 2.26749   
     axis 0 -0 0   XYZ
    dof rx ry rz
    limits (-20.0 45.0)
           (-30.0 30.0)
           (-30.0 30.0)
  end
  begin
     id 15 
     name upperneck
     direction 0.118062 0.961438 -0.248392   
     length 2.22728   
     axis 0 -0 0   XYZ
    dof rx ry rz
    limits (-20.0 45.0)
           (-30.0 30.0)
           (-30.0 30.0)
  end
  begin
     id 16
     name head
     direction 0.0431885 0.9954 -0.085514  
     length 2.28786  
     axis 0 -0 0   XYZ
    dof rx ry rz
    limits (-20.0 45.0)
           (-30.0 30.0)
           (-30.0 30.0)
  end
  begin
     id 17 
     name lclavicle
     direction 0.912126 0.409548 0.0172323  
     length 4.31571  
     axis 0 -0 0   XYZ
    dof ry rz
    limits (-20.0 10.0)
           (0.0 20.0)
  end
  begin
     id 18 
     name lhumerus
     direction 1 -4.48977e-011 1.93091e-027   
     length 5.13658   
     axis 180 -30 -90   XYZ
    dof rx ry rz
    limits (-60.0 90.0)
           (-90.0 90.0)
           (-90.0 90.0)
  end
  begin
     id 19
     name lradius
     direction 1 -4.48916e-011 6.84018e-027   
     length 3.22473   
     axis 180 -30 -90   XYZ
    dof rx
    limits (-10.0 170.0)
  end
  begin
     id 20
     name lwrist
     direction 1 -4.48987e-011 7.01981e-027   
     length 1.61236   
     axis -4.37994e-015 90 90   XYZ
    dof ry
    limits (-180.0 0.0)
 end
  begin
     id 21 
     name lhand
     direction 1 -4.49037e-011 1.40335e-026   
     length 0.936406   
     axis -8.96029e-015 90 90   XYZ
    dof rx rz
    limits (-90.0 90.0)
           (-45.0 45.0)
  end
  begin
     id 22 
     name lfingers
     direction 1 -4.48886e-011 2.8104e-026   
     length 0.754955   
     axis -1.79203e-014 90 90   XYZ
    dof rx
    limits (0.0 90.0)
  end
  begin
     id 23
     name lthumb
     direction 0.707107 -6.34937e-011 0.707107   
     length 1.08397   
     axis -90 45 -4.48555e-014   XYZ
    dof rx rz
    limits (-45.0 45.0)
           (-45.0 45.0)
  end
  begin
     id 24 
     name rclavicle
     direction -0.947962 0.317997 0.0156638   
     length 4.86918  
     axis 0 -0 0   XYZ 
    dof ry rz
    limits (-10.0 20.0)
           (-20.0 0.0)
  end
  begin
     id 25 
     name rhumerus
     direction -1 -4.48951e-011 2.80534e-018  
     length 5.60911   
     axis 180 30 90   XYZ
    dof rx ry rz
    limits (-90.0 60.0)
           (-90.0 90.0)
           (-90.0 90.0)
  end
  begin
     id 26 
     name rradius
     direction -1 -4.4898e-011 2.11315e-027   
     length 3.38704   
     axis 180 30 90   XYZ
    dof rx
    limits (-10.0 170.0)
  end
  begin
     id 27 
     name rwrist
     direction -1 -4.48933e-011 7.02314e-027   
     length 1.69352   
     axis -4.37994e-015 -90 -90   XYZ
    dof ry
    limits (-180.0 0.0)
  end
  begin
     id 28
     name rhand
     direction -1 -4.48937e-011 1.40458e-026   
     length 0.755878   
     axis -8.96029e-015 -90 -90   XYZ
    dof rx rz
    limits (-90.0 90.0)
           (-45.0 45.0)
  end
  begin
     id 29
     name rfingers
     direction -1 -4.4901e-011 2.80737e-026   
     length 0.609409   
     axis -1.79203e-014 -90 -90   XYZ
    dof rx
    limits (0.0 90.0)
  end
  begin
     id 30
     name rthumb
     direction -0.707107 -6.34968e-011 0.707107   
     length 0.874992   
     axis -90 -45 4.48555e-014   XYZ
    dof rx rz
    limits (-45.0 45.0)
           (-45.0 45.0)
  end
:hierarchy
  begin
    root lhipjoint rhipjoint lowerback
    lhipjoint lfemur
    lfemur ltibia
    ltibia lfoot
    lfoot ltoes
    rhipjoint rfemur
    rfemur rtibia
    rtibia rfoot
    rfoot rtoes
    lowerback upperback
    upperback thorax
    thorax lowerneck lclavicle rclavicle
    lowerneck upperneck
    upperneck head
    lclavicle lhumerus
    lhumerus lradius
    lradius lwrist
    lwrist lhand lthumb
    lhand lfingers
    rclavicle rhumerus
    rhumerus rradius
    rradius rwrist
    rwrist rhand rthumb
    rhand rfingers
  end

#!OML:ASF C:\ViconDB\ViconDB\414\Spring2016\041811\Spring2016.ASF
:FULLY-SPECIFIED
:DEGREES
53
root 8.68251 18.7508 -10.1598 -172.322 38.8443 183.74
lowerback 1.35305 3.20029 -4.08376
upperback 0.159145 4.20974 0.0603741
thorax -0.891963 2.12099 2.24379
lowerneck -21.0106 -4.09365 -12.455
upperneck 23.4115 -5.14531 14.6958
head 11.9123 -1.40284 6.91803
rclavicle 1.51573e-014 5.96354e-015
rhumerus -14.3469 -13.2781 -22.9479
rradius 41.2764
rwrist 31.8895
rhand -33.7467 -11.358
rfingers 7.12502
rthumb -6.93504 -41.2244
lclavicle 1.51573e-014 5.96354e-015
lhumerus -31.4612 -0.01113 9.20033
lradius 30.7925
lwrist -14.5518
lhand -30.0913 20.4353
lfingers 7.12502
lthumb -3.40558 50.3879
rfemur 151.26 26.2367 173.548
rtibia 25.7106
rfoot -23.0706 -55.2234
rtoes -32.8403
lfemur -20.0183 3.74406 -13.563
ltibia 31.4847
lfoot -19.0923 3.68061
ltoes -12.1263
54
root 8.69905 18.765 -10.1362 -172.403 40.4797 183.922
lowerback 1.75219 2.84392 -4.43847
upperback 0.102117 3.70847 0.123754
thorax -1.16588 1.87866 2.49827
lowerneck -21.0545 -4.18442 -12.5013
upperneck 23.8985 -5.32506 14.8486
head 12.1482 -1.45916 6.99423
rclavicle -7.28049e-014 3.02153e-014
rhumerus -15.0025 -12.6612 -22.7871
rradius 41.4693
rwrist 30.6719
rhand -33.364 -12.159
rfingers 7.12502
rthumb -6.56564 -42.0372
lclavicle -7.28049e-014 3.02153e-014
lhumerus -31.0381 -0.82627 9.32587
lradius 30.8736
lwrist -14.2048
lhand -29.9106 20.3998
lfingers 7.12502
lthumb -3.2311 50.3551
rfemur 150.575 26.2652 173.951
rtibia 27.1681
rfoot -18.256 -55.3668
rtoes -29.2031
lfemur -19.2609 4.06435 -13.3799
ltibia 31.1087
lfoot -19.2205 5.02004
ltoes -12.3945
55
root 8.71552 18.7686 -10.1077 -172.344 42.1311 184.282
lowerback 1.91413 2.50513 -4.69002
upperback 0.217435 3.24783 0.232424
thorax -1.12279 1.64753 2.7631
lowerneck -21.0252 -3.82907 -12.3304
upperneck 24.0086 -4.92059 15.0004
head 12.114 -1.24179 7.09995
rclavicle -3.67752e-014 -1.59028e-015
rhumerus -15.6086 -12.7881 -22.591
rradius 41.3668
rwrist 30.7861
rhand -33.3262 -12.1481
rfingers 7.12502
rthumb -6.52909 -42.0274
lclavicle -3.67752e-014 -1.59028e-015
lhumerus -30.4553 -0.686651 9.24857
lradius 30.6882
lwrist -14.8818
lhand -29.849 19.965
lfingers 7.12502
lthumb -3.17165 49.9211
rfemur 149.801 26.5199 174.51
rtibia 28.6355
rfoot -13.2543 -55.4872
rtoes -25.6113
lfemur -18.6193 4.37722 -13.0546
ltibia 30.8697
lfoot -19.3628 6.39887
ltoes -12.6395
56
root 8.72635 18.7706 -10.0795 -172.389 43.9229 184.423
lowerback 2.05792 2.1952 -4.93301
upperback 0.227929 2.82249 0.206218
thorax -1.16749 1.43732 2.88253
lowerneck -21.1255 -4.01696 -12.2263
upperneck 24.6108 -5.2407 14.9368
head 12.422 -1.37151 7.04759
rclavicle 1.04362e-014 4.77083e-015
rhumerus -16.4167 -12.8333 -22.4268
rradius 41.2186
rwrist 31.4344
rhand -33.3831 -12.5623
rfingers 7.12502
rthumb -6.58401 -42.44
lclavicle 1.04362e-014 4.77083e-015
lhumerus -29.9303 -1.38373 9.36957
lradius 30.7794
lwrist -14.661
lhand -29.7678 20.0764
lfingers 7.12502
lthumb -3.09317 50.0337
rfemur 148.928 27.0928 174.888
rtibia 30.2296
rfoot -8.57762 -55.8328
rtoes -21.198
lfemur -18.028 4.65206 -12.9581
ltibia 30.7246
lfoot -19.5914 7.88014
ltoes -12.8308
57
root 8.74227 18.7741 -10.0512 -172.325 45.6552 184.754
lowerback 2.10049 1.87977 -5.15395
upperback 0.25518 2.3962 0.300078
thorax -1.13923 1.22445 3.11865
lowerneck -20.9135 -4.10496 -12.3925
upperneck 25.0054 -5.40565 15.1274
head 12.577 -1.43634 7.15716
rclavicle 4.54223e-014 -2.06736e-014
rhumerus -17.1939 -12.5494 -22.0762
rradius 41.2376
rwrist 31.458
rhand -33.202 -12.5414
rfingers 7.12502
rthumb -6.40921 -42.4245
lclavicle 4.54223e-014 -2.06736e-014
lhumerus -29.3115 -1.96813 9.56766
lradius 30.7184
lwrist -14.4449
lhand -29.7423 19.9167
lfingers 7.12502
lthumb -3.06863 49.8744
rfemur 148.023 27.5989 175.54
rtibia 31.8455
rfoot -4.79556 -56.2045
rtoes -17.9114
lfemur -17.4808 4.87628 -12.6875
ltibia 30.7408
lfoot -19.8889 9.30364
ltoes -12.987
58
root 8.75482 18.7749 -10.0143 -172.305 47.4533 185.086
lowerback 2.31372 1.61168 -5.29646
upperback 0.278679 2.02436 0.320969
thorax -1.20575 1.04089 3.22861
lowerneck -20.7858 -4.17463 -12.4467
upperneck 25.4553 -5.55771 15.2373
head 12.7646 -1.49162 7.22147
rclavicle -8.56762e-014 -2.06736e-014
rhumerus -18.119 -12.7076 -21.7438
rradius 40.9084
rwrist 31.5037
rhand -33.2359 -11.9295
rfingers 7.12502
rthumb -6.44191 -41.8115
lclavicle -8.56762e-014 -2.06736e-014
lhumerus -28.6568 -2.66733 9.72584
lradius 30.6212
lwrist -15.095
lhand -29.9285 19.8215
lfingers 7.12502
lthumb -3.24842 49.7765
rfemur 147.059 28.0745 176.279
rtibia 33.5372
rfoot -1.83846 -56.8921
rtoes -14.6728
lfemur -16.924 5.14171 -12.4117
ltibia 30.827
lfoot -20.1682 10.723
ltoes -13.3287
59
root 8.76932 18.7704 -9.98424 -171.864 49.1382 185.796
lowerback 2.26155 1.27697 -5.16625
upperback 0.249738 1.5838 0.453635
thorax -1.16441 0.819389 3.31076
lowerneck -20.5853 -4.32588 -12.6428
upperneck 25.9662 -5.80795 15.4087
head 12.99 -1.59807 7.32692
rclavicle -2.34566e-014 2.62396e-014
rhumerus -18.8714 -12.289 -21.2879
rradius 40.5335
rwrist 31.7111
rhand -33.3313 -11.9345
rfingers 7.12502
rthumb -6.53404 -41.8137
lclavicle -2.34566e-014 2.62396e-014
lhumerus -28.1003 -3.17035 9.89377
lradius 30.5909
lwrist -15.3112
lhand -30.0004 19.5147
lfingers 7.12502
lthumb -3.31781 49.4686
rfemur 146.103 29.0879 177.262
rtibia 35.2104
rfoot -0.186484 -58.1977
rtoes -11.309
lfemur -16.552 5.38895 -11.8946
ltibia 31.0279
lfoot -20.4752 12.0431
ltoes -13.6053
60
root 8.7888 18.7644 -9.95943 -171.874 50.9815 185.971
lowerback 2.17675 0.997756 -5.39479
upperback 0.309111 1.21335 0.473575
thorax -1.0252 0.630628 3.47573
lowerneck -20.3646 -4.34706 -12.7556
upperneck 26.2757 -5.8649 15.4779
head 13.0873 -1.63023 7.38994
rclavicle -9.0447e-015 0
rhumerus -19.4187 -13.4195 -20.8256
rradius 39.9182
rwrist 32.7768
rhand -33.0447 -11.6954
rfingers 7.12502
rthumb -6.25738 -41.583
lclavicle -9.0447e-015 0
lhumerus -27.5812 -4.18803 10.2024
lradius 30.919
lwrist -15.2184
lhand -29.7573 19.6532
lfingers 7.12502
lthumb -3.08305 49.6106
rfemur 145.148 29.8601 177.884
rtibia 36.8824
rfoot 0.706139 -59.8263
rtoes -8.12139
lfemur -16.1094 5.64501 -11.8296
ltibia 31.3413
lfoot -20.8025 13.4961
ltoes -14.1273
61
root 8.80633 18.7563 -9.92973 -171.922 52.7849 186.126
lowerback 2.20909 0.682049 -5.62552
upperback 0.310281 0.785469 0.466143
thorax -1.00207 0.417168 3.61209
lowerneck -20.0279 -4.27275 -12.9359
upperneck 26.6261 -5.78704 15.6124
head 13.1564 -1.60324 7.51939
rclavicle 3.52843e-015 -2.14687e-014
rhumerus -20.2947 -13.6041 -20.3632
rradius 39.6678
rwrist 33.2269
rhand -32.8228 -11.2941
rfingers 7.12502
rthumb -6.04309 -41.1879
lclavicle 3.52843e-015 -2.14687e-014
lhumerus -26.9882 -4.94733 10.3441
lradius 30.9801
lwrist -15.1626
lhand -29.7955 19.7187
lfingers 7.12502
lthumb -3.11998 49.6756
rfemur 144.254 30.6939 178.543
rtibia 38.4396
rfoot 0.843288 -61.7268
rtoes -5.05135
lfemur -15.734 5.8895 -11.7559
ltibia 31.8246
lfoot -21.2729 14.8267
ltoes -14.2375
62
root 8.81826 18.7382 -9.89471 -171.889 54.7156 186.379
lowerback 2.17923 0.397214 -5.77559
upperback 0.358589 0.40609 0.447088
thorax -0.896685 0.224219 3.68953
lowerneck -19.9345 -4.27486 -12.9734
upperneck 27.2149 -5.83445 15.6554
head 13.3934 -1.61822 7.58774
rclavicle 5.25288e-014 -4.29375e-014
rhumerus -20.9987 -13.5418 -19.9693
rradius 39.3827
rwrist 33.1342
rhand -32.9614 -11.3522
rfingers 7.12502
rthumb -6.1769 -41.2421
lclavicle 5.25288e-014 -4.29375e-014
lhumerus -26.418 -4.90247 10.3076
lradius 30.9899
lwrist -16.2728
lhand -29.679 19.382
lfingers 7.12502
lthumb -3.00749 49.3406
rfemur 143.6 31.2542 179.366
rtibia 39.8252
rfoot 0.646137 -63.7825
rtoes -2.15862
lfemur -15.4527 6.15273 -11.6477
ltibia 32.4781
lfoot -21.8365 16.2138
ltoes -14.401
63
root 8.83583 18.7133 -9.858 -172.17 56.6275 186.342
lowerback 2.24999 0.105416 -6.09836
upperback 0.373861 0.00606916 0.410927
thorax -0.87778 0.0247553 3.84585
lowerneck -19.8992 -4.47292 -13.0464
upperneck 27.9518 -6.11262 15.5171
head 13.7492 -1.76118 7.55894
rclavicle -2.6339e-015 1.98785e-014
rhumerus -21.8093 -13.6213 -19.4195
rradius 39.041
rwrist 33.5956
rhand -32.7872 -11.3564
rfingers 7.12502
rthumb -6.00881 -41.2512
lclavicle -2.6339e-015 1.98785e-014
lhumerus -25.9875 -5.95523 10.6903
lradius 31.6428
lwrist -14.3761
lhand -29.7824 19.9613
lfingers 7.12502
lthumb -3.10732 49.9184
rfemur 143.034 31.7337 179.993
rtibia 40.9354
rfoot 1.24747 -66.1334
rtoes 1.70899
lfemur -15.2034 6.42255 -11.6835
ltibia 33.3933
lfoot -22.5288 17.4009
ltoes -14.5581
